<svg width="119" height="114" viewBox="0 0 119 114" fill="none" xmlns="http://www.w3.org/2000/svg">
<path d="M11.9989 40.0639C11.7304 31.5683 10.984 5.10721 12.0843 4.51697C13.3955 3.81361 17.2863 5.52074 20.0874 13.5509L23.5887 33.6263C22.7332 20.5535 20.2455 0 21.588 0C22.9304 0 32.8923 7.52828 34.0928 23.5886L8.58296 85.3205C1.29108 75.898 -0.906871 20.9749 2.08045 22.083C4.89085 23.1254 11.1895 26.9149 11.9989 40.0639Z" fill="#FF6B68"/>
<path d="M107.001 40.0639C107.27 31.5683 108.016 5.10721 106.916 4.51697C105.604 3.81361 101.714 5.52074 98.9126 13.5509L95.4113 33.6263C96.2668 20.5535 98.7545 0 97.412 0C96.0696 0 86.1077 7.52828 84.9072 23.5886L110.417 85.3205C117.709 75.898 119.907 20.9749 116.92 22.083C114.109 23.1254 107.811 26.9149 107.001 40.0639Z" fill="#FF6B68"/>
<path fill-rule="evenodd" clip-rule="evenodd" d="M12.959 46.9901C19.3997 27.4668 38.0898 13.3477 60.1426 13.3477C81.3904 13.3477 99.5166 26.4549 106.572 44.8744C113.245 59.2979 111.245 91.5941 111.245 91.5941C111.17 120.059 8.5003 122.847 6.81485 91.5914C6.19078 80.0186 8.72649 59.0395 12.959 46.9901Z" fill="url(#paint0_linear)"/>
<path d="M52 79.5L46 67.5L52 71.5L60 64L68 71.5L73 67.5L68 79.5L60 72.5L52 79.5Z" fill="black"/>
<path fill-rule="evenodd" clip-rule="evenodd" d="M15.5707 38C15.1974 39.6063 15 41.2801 15 43C15 55.1503 24.8497 65 37 65C47.4304 65 56.1654 57.7414 58.4293 48H61.5707C63.8346 57.7414 72.5696 65 83 65C95.1503 65 105 55.1503 105 43C105 41.2801 104.803 39.6063 104.429 38H61.5707H58.4293H15.5707Z" fill="black"/>
<path fill-rule="evenodd" clip-rule="evenodd" d="M69.415 42.3575C67.7607 41.4004 66.2114 41.1666 65.1716 41.8846C63.1267 43.297 63.8275 47.857 66.737 52.0698C69.6465 56.2827 73.6629 58.5529 75.7079 57.1406C76.7668 56.4092 77.0895 54.8338 76.7505 52.8997C72.655 51.0517 69.7337 47.0616 69.415 42.3575Z" fill="white"/>
<path fill-rule="evenodd" clip-rule="evenodd" d="M23.029 42.3575C21.3747 41.4004 19.8254 41.1666 18.7857 41.8846C16.7407 43.297 17.4415 47.857 20.351 52.0698C23.2605 56.2827 27.2769 58.5529 29.3219 57.1406C30.3808 56.4092 30.7035 54.8338 30.3645 52.8997C26.269 51.0517 23.3477 47.0616 23.029 42.3575Z" fill="white"/>
<defs>
<linearGradient id="paint0_linear" x1="59.1234" y1="13.3477" x2="59.1234" y2="114" gradientUnits="userSpaceOnUse">
<stop stop-color="#FFBDB2"/>
<stop offset="0.635417" stop-color="#FFEEE7"/>
</linearGradient>
</defs>
</svg>
