<svg width="128" height="128" viewBox="0 0 128 128" fill="none" xmlns="http://www.w3.org/2000/svg">
<path d="M16.9989 47.0639C16.7304 38.5683 15.984 12.1072 17.0843 11.517C18.3955 10.8136 22.2863 12.5207 25.0874 20.5509L28.5887 40.6263C27.7332 27.5535 25.2455 7 26.588 7C27.9304 7 37.8923 14.5283 39.0928 30.5886L13.583 92.3205C6.29108 82.898 4.09313 27.9749 7.08045 29.083C9.89085 30.1254 16.1895 33.9149 16.9989 47.0639Z" fill="#FF6B68"/>
<path d="M112.001 47.0639C112.27 38.5683 113.016 12.1072 111.916 11.517C110.604 10.8136 106.714 12.5207 103.913 20.5509L100.411 40.6263C101.267 27.5535 103.755 7 102.412 7C101.07 7 91.1077 14.5283 89.9072 30.5886L115.417 92.3205C122.709 82.898 124.907 27.9749 121.92 29.083C119.109 30.1254 112.811 33.9149 112.001 47.0639Z" fill="#FF6B68"/>
<path fill-rule="evenodd" clip-rule="evenodd" d="M17.959 53.9901C24.3997 34.4668 43.0898 20.3477 65.1426 20.3477C86.3904 20.3477 104.517 33.4549 111.572 51.8744C118.245 66.2979 116.245 98.5941 116.245 98.5941C116.17 127.059 13.5003 129.847 11.8148 98.5914C11.1908 87.0186 13.7265 66.0395 17.959 53.9901Z" fill="url(#paint0_linear)"/>
<path d="M44 87.5C48.8903 87.5 53.2768 84.8172 56.4229 80.5606C59.5691 76.304 61.5 70.4473 61.5 64C61.5 57.5527 59.5691 51.696 56.4229 47.4393C53.2768 43.1828 48.8903 40.5 44 40.5C39.1097 40.5 34.7232 43.1828 31.5771 47.4393C28.4309 51.696 26.5 57.5527 26.5 64C26.5 70.4473 28.4309 76.304 31.5771 80.5606C34.7232 84.8172 39.1097 87.5 44 87.5Z" fill="white" stroke="#FFABA7"/>
<ellipse cx="39.5" cy="70" rx="8.5" ry="10" fill="black"/>
<path d="M87 87.5C91.8903 87.5 96.2768 84.8172 99.4229 80.5606C102.569 76.304 104.5 70.4473 104.5 64C104.5 57.5527 102.569 51.696 99.4229 47.4393C96.2768 43.1828 91.8903 40.5 87 40.5C82.1097 40.5 77.7232 43.1828 74.5771 47.4393C71.4309 51.696 69.5 57.5527 69.5 64C69.5 70.4473 71.4309 76.304 74.5771 80.5606C77.7232 84.8172 82.1097 87.5 87 87.5Z" fill="white" stroke="#FFABA7"/>
<ellipse cx="82.5" cy="70" rx="8.5" ry="10" fill="black"/>
<defs>
<linearGradient id="paint0_linear" x1="64.1234" y1="20.3477" x2="64.1234" y2="121" gradientUnits="userSpaceOnUse">
<stop stop-color="#FFBDB2"/>
<stop offset="0.635417" stop-color="#FFEEE7"/>
</linearGradient>
</defs>
</svg>
