<svg width="119" height="114" viewBox="0 0 119 114" fill="none" xmlns="http://www.w3.org/2000/svg">
<path d="M11.9989 40.0639C11.7304 31.5683 10.984 5.10721 12.0843 4.51697C13.3955 3.81361 17.2863 5.52074 20.0874 13.5509L23.5887 33.6263C22.7332 20.5535 20.2455 0 21.588 0C22.9304 0 32.8923 7.52828 34.0928 23.5886L8.58296 85.3205C1.29108 75.898 -0.906871 20.9749 2.08045 22.083C4.89085 23.1254 11.1895 26.9149 11.9989 40.0639Z" fill="#FF6B68"/>
<path d="M107.001 40.0639C107.27 31.5683 108.016 5.10721 106.916 4.51697C105.604 3.81361 101.714 5.52074 98.9126 13.5509L95.4113 33.6263C96.2668 20.5535 98.7545 0 97.412 0C96.0696 0 86.1077 7.52828 84.9072 23.5886L110.417 85.3205C117.709 75.898 119.907 20.9749 116.92 22.083C114.109 23.1254 107.811 26.9149 107.001 40.0639Z" fill="#FF6B68"/>
<path fill-rule="evenodd" clip-rule="evenodd" d="M12.959 46.9901C19.3997 27.4668 38.0898 13.3477 60.1426 13.3477C81.3904 13.3477 99.5166 26.4549 106.572 44.8744C113.245 59.2979 111.245 91.5941 111.245 91.5941C111.17 120.059 8.5003 122.847 6.81485 91.5914C6.19078 80.0186 8.72649 59.0395 12.959 46.9901Z" fill="url(#paint0_linear)"/>
<path d="M59 107.444C73.6048 107.444 85.4444 95.6048 85.4444 81C85.4444 66.3951 73.6048 54.5555 59 54.5555C44.3951 54.5555 32.5555 66.3951 32.5555 81C32.5555 95.6048 44.3951 107.444 59 107.444Z" fill="#D99E82"/>
<path d="M66.2146 79.362C68.0455 78.7631 70.0164 79.768 70.6122 81.602C71.2095 83.436 70.2077 85.4084 68.3706 86.0058C66.5335 86.6031 62.3491 86.3184 61.7517 84.4844C61.156 82.6473 64.376 79.9562 66.2146 79.362V79.362ZM79.5457 78.3167C78.9546 79.0198 77.9046 79.1131 77.2015 78.5204C76.4984 77.9278 76.4066 76.8793 76.9977 76.1747C77.5904 75.4731 79.3529 74.5304 80.056 75.1216C80.7606 75.7142 80.1384 77.612 79.5457 78.3167ZM45.3235 67.4278C44.7324 68.1309 43.6824 68.2242 42.9793 67.6316C42.2762 67.0389 42.1844 65.992 42.7755 65.2858C43.3682 64.5842 45.1306 63.6416 45.8337 64.2327C46.5384 64.8253 45.9162 66.7231 45.3235 67.4278ZM64.1349 64.4816C62.9713 63.738 62.6275 62.1918 63.3726 61.0282C64.1177 59.8631 65.664 59.5224 66.8291 60.266C67.9942 61.0111 69.7411 63.4549 68.9975 64.6184C68.2509 65.7851 65.3 65.2282 64.1349 64.4816V64.4816ZM51.8055 74.1524C51.0044 72.4942 51.706 70.4953 53.3688 69.6973C55.0317 68.8993 57.026 69.6024 57.824 71.2653C58.622 72.9298 58.8849 76.9322 57.222 77.7271C55.556 78.5267 52.6004 75.8184 51.8055 74.1524V74.1524ZM53.3984 96.0842C54.3348 94.7247 56.1984 94.3793 57.5548 95.3189C58.9144 96.26 59.2566 98.1204 58.3171 99.48C57.3775 100.84 54.3846 102.82 53.0282 101.882C51.6671 100.942 52.4588 97.4422 53.3984 96.0842V96.0842ZM68.9742 95.4527C67.9055 94.7744 67.5913 93.3558 68.2757 92.2887C68.9571 91.2231 70.3742 90.9104 71.4413 91.5933C72.5084 92.2747 74.1091 94.5147 73.4262 95.5787C72.7449 96.6489 70.0413 96.1371 68.9742 95.4527V95.4527ZM39.6115 81.6533C40.7968 80.3264 42.8331 80.2129 44.1584 81.3998C45.4837 82.5882 45.5957 84.6213 44.4088 85.9451C43.222 87.2736 39.7546 88.9862 38.4308 87.7978C37.1024 86.6109 38.4231 82.9771 39.6115 81.6533Z" fill="#8A4B38"/>
<path d="M51 62.5L45 50.5L51 54.5L59 47L67 54.5L72 50.5L67 62.5L59 55.5L51 62.5Z" fill="black"/>
<path fill-rule="evenodd" clip-rule="evenodd" d="M34.4952 43.3749C38.0824 45.446 42.6693 44.2169 44.7404 40.6297C44.9628 40.2444 45.1472 39.8475 45.2947 39.4435L32.5001 32.0565C32.224 32.3863 31.9725 32.7444 31.75 33.1297C29.6789 36.7169 30.908 41.3038 34.4952 43.3749Z" fill="black"/>
<path fill-rule="evenodd" clip-rule="evenodd" d="M82.0985 43.1249C85.6857 41.0538 86.9148 36.4669 84.8437 32.8797C84.6213 32.4944 84.3698 32.1363 84.0936 31.8065L71.299 39.1935C71.4465 39.5975 71.6309 39.9944 71.8534 40.3797C73.9244 43.9669 78.5113 45.196 82.0985 43.1249Z" fill="black"/>
<defs>
<linearGradient id="paint0_linear" x1="59.1234" y1="13.3477" x2="59.1234" y2="114" gradientUnits="userSpaceOnUse">
<stop stop-color="#FFBDB2"/>
<stop offset="0.635417" stop-color="#FFEEE7"/>
</linearGradient>
</defs>
</svg>
