<svg width="128" height="128" viewBox="0 0 128 128" fill="none" xmlns="http://www.w3.org/2000/svg">
<path d="M15.9989 47.0639C15.7304 38.5683 14.984 12.1072 16.0843 11.517C17.3955 10.8136 21.2863 12.5207 24.0874 20.5509L27.5887 40.6263C26.7332 27.5535 24.2455 7 25.588 7C26.9304 7 36.8923 14.5283 38.0928 30.5886L12.583 92.3205C5.29108 82.898 3.09313 27.9749 6.08045 29.083C8.89085 30.1254 15.1895 33.9149 15.9989 47.0639Z" fill="#FF6B68"/>
<path d="M111.001 47.0639C111.27 38.5683 112.016 12.1072 110.916 11.517C109.604 10.8136 105.714 12.5207 102.913 20.5509L99.4113 40.6263C100.267 27.5535 102.755 7 101.412 7C100.07 7 90.1077 14.5283 88.9072 30.5886L114.417 92.3205C121.709 82.898 123.907 27.9749 120.92 29.083C118.109 30.1254 111.811 33.9149 111.001 47.0639Z" fill="#FF6B68"/>
<path fill-rule="evenodd" clip-rule="evenodd" d="M16.959 53.9901C23.3997 34.4668 42.0898 20.3477 64.1426 20.3477C85.3904 20.3477 103.517 33.4549 110.572 51.8744C117.245 66.2979 115.245 98.5941 115.245 98.5941C115.17 127.059 12.5003 129.847 10.8148 98.5914C10.1908 87.0186 12.7265 66.0395 16.959 53.9901Z" fill="url(#paint0_linear)"/>
<ellipse cx="44.8537" cy="41.4542" rx="9.5" ry="14" fill="black"/>
<path fill-rule="evenodd" clip-rule="evenodd" d="M50.7988 46.274C50.2417 46.7439 49.6682 47.5235 49.214 48.4964C48.9564 49.048 48.7652 49.6017 48.642 50.1223C47.7335 50.9485 46.746 51.2423 45.9999 50.7837C44.765 50.0246 44.6594 47.4913 45.764 45.1255C46.8686 42.7597 48.7652 41.4572 50.0001 42.2163C50.9571 42.8046 51.2358 44.4584 50.7988 46.274Z" fill="white"/>
<path fill-rule="evenodd" clip-rule="evenodd" d="M45.7317 35.2238C44.9889 35.7981 44.2243 36.7509 43.6186 37.94C43.2752 38.6142 43.0203 39.291 42.856 39.9273C41.6447 40.937 40.328 41.2961 39.3333 40.7356C37.6867 39.8078 37.5459 36.7116 39.0187 33.8201C40.4915 30.9285 43.0202 29.3366 44.6667 30.2644C45.9427 30.9834 46.3145 33.0047 45.7317 35.2238Z" fill="white"/>
<ellipse cx="83.8537" cy="41.4542" rx="9.5" ry="14" fill="black"/>
<path fill-rule="evenodd" clip-rule="evenodd" d="M89.7988 46.274C89.2417 46.7439 88.6682 47.5235 88.214 48.4964C87.9564 49.048 87.7652 49.6017 87.642 50.1223C86.7335 50.9485 85.746 51.2423 84.9999 50.7837C83.765 50.0246 83.6594 47.4913 84.764 45.1255C85.8686 42.7597 87.7652 41.4572 89.0001 42.2163C89.9571 42.8046 90.2358 44.4584 89.7988 46.274Z" fill="white"/>
<path fill-rule="evenodd" clip-rule="evenodd" d="M84.7317 35.2238C83.9889 35.7981 83.2243 36.7509 82.6186 37.94C82.2752 38.6142 82.0203 39.291 81.856 39.9273C80.6447 40.937 79.328 41.2961 78.3333 40.7356C76.6867 39.8078 76.5459 36.7116 78.0187 33.8201C79.4915 30.9285 82.0202 29.3366 83.6667 30.2644C84.9427 30.9834 85.3145 33.0047 84.7317 35.2238Z" fill="white"/>
<path d="M102 69.9244C102 58.3681 92.6131 49 81.0357 49C74.0073 49 67.8053 52.4627 64 57.7552C60.1947 52.4627 53.9927 49 46.9664 49C35.3869 49 26 58.3659 26 69.9244C26 71.5614 26.2082 73.1474 26.5652 74.6763C29.476 92.7275 49.5861 111.771 64 117C78.4117 111.771 98.524 92.7275 101.431 74.6784C101.792 73.1496 102 71.5635 102 69.9244V69.9244Z" fill="#DD2E44"/>
<path d="M78.5817 92.745C74.9467 89.11 74.9467 83.2166 78.5817 79.5817V79.5817C82.2166 75.9467 88.11 75.9467 91.745 79.5817L104.421 92.258L91.258 105.421L78.5817 92.745Z" fill="#FFEEE7"/>
<path d="M35.4183 79.5817C39.0533 75.9467 44.9467 75.9467 48.5817 79.5817V79.5817C52.2166 83.2166 52.2166 89.11 48.5816 92.745L35.9053 105.421L22.742 92.258L35.4183 79.5817Z" fill="#FFEEE7"/>
<defs>
<linearGradient id="paint0_linear" x1="63.1234" y1="20.3477" x2="63.1234" y2="121" gradientUnits="userSpaceOnUse">
<stop stop-color="#FFBDB2"/>
<stop offset="0.635417" stop-color="#FFEEE7"/>
</linearGradient>
</defs>
</svg>
