<svg width="122" height="128" viewBox="0 0 122 128" fill="none" xmlns="http://www.w3.org/2000/svg">
<path d="M10.9989 47.0639C10.7304 38.5683 9.98395 12.1072 11.0843 11.517C12.3955 10.8136 16.2863 12.5207 19.0874 20.5509L22.5887 40.6263C21.7332 27.5535 19.2455 7 20.588 7C21.9304 7 31.8923 14.5283 33.0928 30.5886L7.58296 92.3205C0.291075 82.898 -1.90687 27.9749 1.08045 29.083C3.89085 30.1254 10.1895 33.9149 10.9989 47.0639Z" fill="#FF6B68"/>
<path d="M106.001 47.0639C106.27 38.5683 107.016 12.1072 105.916 11.517C104.604 10.8136 100.714 12.5207 97.9126 20.5509L94.4113 40.6263C95.2668 27.5535 97.7545 7 96.412 7C95.0696 7 85.1077 14.5283 83.9072 30.5886L109.417 92.3205C116.709 82.898 118.907 27.9749 115.92 29.083C113.109 30.1254 106.811 33.9149 106.001 47.0639Z" fill="#FF6B68"/>
<path fill-rule="evenodd" clip-rule="evenodd" d="M11.959 53.99C18.3997 34.4667 37.0898 20.3476 59.1426 20.3476C80.3904 20.3476 98.5166 33.4549 105.572 51.8744C112.245 66.2979 110.245 98.5941 110.245 98.5941C110.17 127.059 7.5003 129.847 5.81485 98.5914C5.19078 87.0186 7.72649 66.0395 11.959 53.99Z" fill="url(#paint0_linear)"/>
<rect x="49" y="92" width="48" height="7" rx="3.5" fill="black"/>
<rect x="64" y="58" width="39" height="14" rx="7" fill="white"/>
<path d="M103 65C103 68.866 99.866 72 96 72C92.134 72 89 68.866 89 65C89 61.134 92.134 58 96 58C99.866 58 103 61.134 103 65Z" fill="black"/>
<rect x="65" y="59" width="37" height="12" rx="6" stroke="black" stroke-width="2"/>
<rect x="24" y="58" width="39" height="14" rx="7" fill="white"/>
<path d="M63 65C63 68.866 59.866 72 56 72C52.134 72 49 68.866 49 65C49 61.134 52.134 58 56 58C59.866 58 63 61.134 63 65Z" fill="black"/>
<rect x="25" y="59" width="37" height="12" rx="6" stroke="black" stroke-width="2"/>
<defs>
<linearGradient id="paint0_linear" x1="58.1234" y1="20.3476" x2="58.1234" y2="121" gradientUnits="userSpaceOnUse">
<stop stop-color="#FFBDB2"/>
<stop offset="0.635417" stop-color="#FFEEE7"/>
</linearGradient>
</defs>
</svg>
