<svg width="122" height="128" viewBox="0 0 122 128" fill="none" xmlns="http://www.w3.org/2000/svg">
<path d="M9.99893 47.0639C9.73039 38.5683 8.98395 12.1072 10.0843 11.517C11.3955 10.8136 15.2863 12.5207 18.0874 20.5509L21.5887 40.6263C20.7332 27.5535 18.2455 7 19.588 7C20.9304 7 30.8923 14.5283 32.0928 30.5886L6.58296 92.3205C-0.708925 82.898 -2.90687 27.9749 0.0804547 29.083C2.89085 30.1254 9.18946 33.9149 9.99893 47.0639Z" fill="#FF6B68"/>
<path d="M105.001 47.0639C105.27 38.5683 106.016 12.1072 104.916 11.517C103.604 10.8136 99.7137 12.5207 96.9126 20.5509L93.4113 40.6263C94.2668 27.5535 96.7545 7 95.412 7C94.0696 7 84.1077 14.5283 82.9072 30.5886L108.417 92.3205C115.709 82.898 117.907 27.9749 114.92 29.083C112.109 30.1254 105.811 33.9149 105.001 47.0639Z" fill="#FF6B68"/>
<path fill-rule="evenodd" clip-rule="evenodd" d="M10.959 53.99C17.3997 34.4667 36.0898 20.3476 58.1426 20.3476C79.3904 20.3476 97.5166 33.4549 104.572 51.8744C111.245 66.2979 109.245 98.5941 109.245 98.5941C109.17 127.059 6.5003 129.847 4.81485 98.5914C4.19078 87.0186 6.72649 66.0395 10.959 53.99Z" fill="url(#paint0_linear)"/>
<rect x="43" y="88" width="48" height="7" rx="3.5" fill="black"/>
<rect x="58" y="54" width="39" height="14" rx="7" fill="white"/>
<path d="M97 61C97 64.866 93.866 68 90 68C86.134 68 83 64.866 83 61C83 57.134 86.134 54 90 54C93.866 54 97 57.134 97 61Z" fill="black"/>
<rect x="59" y="55" width="37" height="12" rx="6" stroke="black" stroke-width="2"/>
<rect x="18" y="54" width="39" height="14" rx="7" fill="white"/>
<path d="M57 61C57 64.866 53.866 68 50 68C46.134 68 43 64.866 43 61C43 57.134 46.134 54 50 54C53.866 54 57 57.134 57 61Z" fill="black"/>
<rect x="19" y="55" width="37" height="12" rx="6" stroke="black" stroke-width="2"/>
<defs>
<linearGradient id="paint0_linear" x1="57.1234" y1="20.3476" x2="57.1234" y2="121" gradientUnits="userSpaceOnUse">
<stop stop-color="#FFBDB2"/>
<stop offset="0.635417" stop-color="#FFEEE7"/>
</linearGradient>
</defs>
</svg>
