<svg width="119" height="121" viewBox="0 0 119 121" fill="none" xmlns="http://www.w3.org/2000/svg">
<path d="M11.9989 46.324C11.7304 37.8284 10.9839 11.3673 12.0843 10.7771C13.3955 10.0737 17.2863 11.7809 20.0873 19.811L23.5887 39.8865C22.7331 26.8136 20.2455 6.26013 21.5879 6.26013C22.9304 6.26013 32.8923 13.7884 34.0927 29.8488L8.58293 91.5807C1.29104 82.1581 -0.906901 27.235 2.08042 28.3431C4.89082 29.3856 11.1894 33.175 11.9989 46.324Z" fill="#FF6B68"/>
<path d="M107.001 46.324C107.27 37.8284 108.016 11.3673 106.916 10.7771C105.605 10.0737 101.714 11.7809 98.9127 19.811L95.4113 39.8865C96.2669 26.8136 98.7545 6.26013 97.4121 6.26013C96.0696 6.26013 86.1077 13.7884 84.9073 29.8488L110.417 91.5807C117.709 82.1581 119.907 27.235 116.92 28.3431C114.109 29.3856 107.811 33.175 107.001 46.324Z" fill="#FF6B68"/>
<path fill-rule="evenodd" clip-rule="evenodd" d="M12.959 53.2502C19.3997 33.7269 38.0898 19.6078 60.1426 19.6078C81.3904 19.6078 99.5166 32.715 106.572 51.1345C113.245 65.558 111.245 97.8542 111.245 97.8542C111.17 126.319 8.5003 129.107 6.81485 97.8515C6.19078 86.2787 8.72649 65.2996 12.959 53.2502Z" fill="url(#paint0_linear)"/>
<path d="M75.5 81.7768C71.2513 79.9007 64.7534 75.4347 51.2926 74.8089C50.7865 74.7854 50.1939 74.6051 50.1042 74.1065C49.7147 71.9406 58.1394 70.4138 64.5 71.7768C71.5 73.2768 79.1876 83.4052 75.5 81.7768Z" fill="black"/>
<path fill-rule="evenodd" clip-rule="evenodd" d="M16.0689 42.7178C15.6398 44.3101 15.3841 45.976 15.3241 47.6948C14.9001 59.8377 24.4 70.0252 36.5429 70.4492C46.9669 70.8132 55.95 63.8639 58.5525 54.2074L61.6919 54.3171C63.6145 64.1316 72.0909 71.6906 82.5149 72.0546C94.6577 72.4786 104.845 62.9787 105.269 50.8358C105.329 49.1169 105.19 47.4373 104.873 45.8189L62.0409 44.3232L58.9015 44.2135L16.0689 42.7178Z" fill="black"/>
<path fill-rule="evenodd" clip-rule="evenodd" d="M69.7284 48.9518C68.1084 47.9376 66.5682 47.6498 65.5041 48.3312C63.4111 49.6713 63.9523 54.253 66.713 58.5648C69.4737 62.8766 73.4085 65.2856 75.5015 63.9455C76.5853 63.2515 76.9628 61.6884 76.6914 59.7436C72.6629 57.7538 69.8827 53.6642 69.7284 48.9518Z" fill="white"/>
<path fill-rule="evenodd" clip-rule="evenodd" d="M23.3706 47.333C21.7507 46.3187 20.2105 46.031 19.1463 46.7123C17.0533 48.0524 17.5945 52.6341 20.3552 56.9459C23.1159 61.2577 27.0507 63.6667 29.1437 62.3266C30.2275 61.6327 30.605 60.0695 30.3337 58.1247C26.3051 56.135 23.5249 52.0453 23.3706 47.333Z" fill="white"/>
<ellipse cx="61.5174" cy="23.2604" rx="36.5" ry="22" transform="rotate(2 61.5174 23.2604)" fill="#002EA6"/>
<ellipse cx="61.0637" cy="36.2525" rx="36.5" ry="10" transform="rotate(2 61.0637 36.2525)" fill="#222222"/>
<circle cx="61.3953" cy="26.7583" r="7.5" transform="rotate(2 61.3953 26.7583)" fill="#FFB700"/>
<defs>
<linearGradient id="paint0_linear" x1="59.1234" y1="19.6078" x2="59.1234" y2="120.26" gradientUnits="userSpaceOnUse">
<stop stop-color="#FFBDB2"/>
<stop offset="0.635417" stop-color="#FFEEE7"/>
</linearGradient>
</defs>
</svg>
